<?xml version="1.0" encoding="UTF-8" standalone="no"?>
<!-- Created with Inkscape (http://www.inkscape.org/) -->
<svg xmlns:dc="http://purl.org/dc/elements/1.1/" xmlns:cc="http://creativecommons.org/ns#" xmlns:rdf="http://www.w3.org/1999/02/22-rdf-syntax-ns#" xmlns:svg="http://www.w3.org/2000/svg" xmlns="http://www.w3.org/2000/svg" version="1.1" width="171.22237" height="100" viewbox="0 0 171.22237 100" id="svg3744">
  <defs id="defs3746"/>
  <metadata id="metadata3749">
    <rdf:RDF>
      <cc:Work rdf:about="">
        <dc:format>image/svg+xml</dc:format>
        <dc:type rdf:resource="http://purl.org/dc/dcmitype/StillImage"/>
        <dc:title/>
      </cc:Work>
    </rdf:RDF>
  </metadata>
  <g transform="translate(-237.24596,-385.21933)" id="layer1">
    <g transform="matrix(2.4117016,0,0,2.4117016,-78.763476,-72.015374)" id="g3985">
      <g transform="matrix(1.25,0,0,-1.25,141.41048,210.91045)" id="g3003">
        <path d="M 0,0 C 0,1.501 0.061,3.646 -1.991,3.646 -3.983,3.646 -3.952,1.318 -3.952,0 L 0,0 z m -3.952,-2.421 c 0,-1.838 0.061,-4.595 1.961,-4.595 1.531,0 1.838,1.471 1.838,2.757 l 4.381,0 C 4.167,-5.944 3.615,-7.323 2.574,-8.272 1.563,-9.222 0.031,-9.774 -1.991,-9.774 c -5.576,0 -6.312,3.401 -6.312,8.242 0,4.228 0.613,7.843 6.312,7.843 5.821,0 6.464,-3.768 6.311,-8.732 l -8.272,0 z" id="path3005" style="fill:#008397;fill-opacity:1;fill-rule:nonzero;stroke:none"/>
      </g>
      <g transform="matrix(1.25,0,0,-1.25,158.30073,198.42558)" id="g3007">
        <path d="m 0,0 c -1.746,0.123 -2.114,-0.551 -2.114,-2.114 l 0,-1.869 2.022,0 0,-2.665 -2.022,0 0,-12.807 -4.32,0 0,12.807 -1.93,0 0,2.665 1.961,0 C -6.434,0.46 -6.802,2.819 -1.532,2.819 -1.011,2.819 -0.521,2.788 0,2.757 L 0,0 z" id="path3009" style="fill:#008397;fill-opacity:1;fill-rule:nonzero;stroke:none"/>
      </g>
      <g transform="matrix(1.25,0,0,-1.25,169.50373,212.90208)" id="g3011">
        <path d="m 0,0 c 0,3.094 0.03,5.239 -1.838,5.239 -1.777,0 -1.747,-2.145 -1.747,-5.239 0,-3.891 0.276,-5.515 1.747,-5.515 C -0.276,-5.515 0,-3.891 0,0 m -3.799,7.598 0,-1.715 0.061,0 c 0.797,1.501 1.992,2.022 3.646,2.022 4.473,0 4.32,-4.964 4.32,-8.15 0,-3.125 0.123,-7.935 -4.228,-7.935 -1.563,0 -2.635,0.459 -3.523,1.777 l -0.062,0 0,-8.119 -4.32,0 0,22.12 4.106,0 z" id="path3013" style="fill:#008397;fill-opacity:1;fill-rule:nonzero;stroke:none"/>
      </g>
      <g transform="matrix(1.25,0,0,-1.25,191.80323,216.73158)" id="g3015">
        <path d="m 0,0 c 0,-1.103 0.184,-2.451 1.593,-2.451 2.543,0 2.145,3.431 2.145,5.117 C 1.593,2.573 0,2.757 0,0 m 7.966,-1.93 c 0,-0.95 0.122,-1.93 0.214,-2.88 l -4.013,0 -0.184,2.052 -0.061,0 c -0.919,-1.593 -2.176,-2.359 -4.044,-2.359 -3.003,0 -4.106,2.237 -4.106,4.933 0,5.117 3.952,5.331 7.966,5.27 l 0,1.195 c 0,1.317 -0.184,2.267 -1.746,2.267 -1.502,0 -1.624,-1.133 -1.624,-2.359 l -4.228,0 c 0,1.869 0.582,3.064 1.593,3.768 0.98,0.736 2.39,1.011 4.044,1.011 5.484,0 6.189,-2.359 6.189,-5.177 l 0,-7.721 z" id="path3017" style="fill:#008397;fill-opacity:1;fill-rule:nonzero;stroke:none"/>
      </g>
      <g transform="matrix(1.25,0,0,-1.25,182.19811,204.92133)" id="g3019">
        <path d="m 0,0 -2.599,0 c -0.103,0 -0.187,0.084 -0.187,0.186 l 0,11.892 c 0,0.103 0.084,0.187 0.187,0.187 l 2.599,0 c 0.103,0 0.187,-0.084 0.187,-0.187 l 0,-11.892 C 0.187,0.084 0.103,0 0,0" id="path3021" style="fill:#f7921a;fill-opacity:1;fill-rule:nonzero;stroke:none"/>
      </g>
      <g transform="matrix(1.25,0,0,-1.25,187.93573,199.74783)" id="g3023">
        <path d="M 0,0 -1.304,-2.248 C -1.356,-2.337 -1.47,-2.367 -1.559,-2.316 l -10.286,5.968 c -0.089,0.052 -0.12,0.166 -0.068,0.255 l 1.304,2.248 c 0.052,0.089 0.166,0.12 0.255,0.068 L -0.068,0.255 C 0.021,0.203 0.052,0.089 0,0" id="path3025" style="fill:#f7921a;fill-opacity:1;fill-rule:nonzero;stroke:none"/>
      </g>
      <g transform="matrix(1.25,0,0,-1.25,186.48761,192.16507)" id="g3027">
        <path d="m 0,0 1.262,-2.272 c 0.05,-0.09 0.017,-0.204 -0.073,-0.254 L -9.208,-8.298 c -0.09,-0.05 -0.204,-0.017 -0.254,0.073 l -1.262,2.272 c -0.05,0.09 -0.017,0.204 0.073,0.254 L -0.254,0.073 C -0.164,0.123 -0.05,0.09 0,0" id="path3029" style="fill:#f7921a;fill-opacity:1;fill-rule:nonzero;stroke:none"/>
      </g>
      <path d="m 177.90548,222.7447 5.4,0 0,-16.11125 -5.4,0 0,16.11125 z" id="path3031" style="fill:#008397;fill-opacity:1;fill-rule:nonzero;stroke:none"/>
    </g>
  </g>
</svg>