<?xml version="1.0" encoding="UTF-8"?>
<svg width="207.42mm" height="60.591mm" version="1.1" viewBox="0 0 207.42 60.591" xmlns="http://www.w3.org/2000/svg" xmlns:cc="http://creativecommons.org/ns#" xmlns:dc="http://purl.org/dc/elements/1.1/" xmlns:rdf="http://www.w3.org/1999/02/22-rdf-syntax-ns#">
 <defs>
  <clipPath id="clipPath30">
   <path d="M 0,144.567 H 297.638 V 0 H 0 Z"/>
  </clipPath>
 </defs>
 <metadata>
  <rdf:RDF>
   <cc:Work rdf:about="">
    <dc:format>image/svg+xml</dc:format>
    <dc:type rdf:resource="http://purl.org/dc/dcmitype/StillImage"/>
    <dc:title/>
   </cc:Work>
  </rdf:RDF>
 </metadata>
 <g transform="translate(-1.3923 -1.6434)">
  <g transform="matrix(.97158 0 0 -.97158 -38.8 102.17)">
   <g transform="translate(101.25 100.98)">
    <path d="m0 0-19.134-19.134" fill="none" stroke="#2b4c71" stroke-linecap="round" stroke-miterlimit="10" stroke-width="2.835"/>
   </g>
   <g clip-path="url(#clipPath30)">
    <g transform="translate(102.31 89.292)">
     <path d="m0 0v11.693c0 0.584-0.479 1.063-1.063 1.063h-11.693" fill="none" stroke="#2b4c71" stroke-linecap="round" stroke-miterlimit="10" stroke-width="2.835"/>
    </g>
    <g transform="translate(81.053 93.544)">
     <path d="m0 0v-11.693c0-0.585 0.479-1.063 1.063-1.063h11.693" fill="none" stroke="#2b4c71" stroke-linecap="round" stroke-miterlimit="10" stroke-width="2.835"/>
    </g>
    <g transform="translate(101.25 43.583)">
     <path d="m0 0-7.007 7.007c-0.826 0.827-2.18 2.18-3.007 3.007l-9.12 9.12" fill="none" stroke="#e5850f" stroke-linecap="round" stroke-miterlimit="10" stroke-width="2.835"/>
    </g>
    <g transform="translate(102.31 55.275)">
     <path d="m0 0v-11.692c0-0.585-0.478-1.064-1.063-1.064h-11.693" fill="none" stroke="#e5850f" stroke-linecap="round" stroke-miterlimit="10" stroke-width="2.835"/>
    </g>
    <g transform="translate(81.053 51.023)">
     <path d="m0 0v11.693c0 0.584 0.479 1.063 1.063 1.063h11.693" fill="none" stroke="#e5850f" stroke-linecap="round" stroke-miterlimit="10" stroke-width="2.835"/>
    </g>
    <g transform="translate(43.848 43.583)">
     <path d="m0 0 19.134 19.134" fill="none" stroke="#2b4c71" stroke-linecap="round" stroke-miterlimit="10" stroke-width="2.835"/>
    </g>
    <g transform="translate(42.785 55.275)">
     <path d="m0 0v-11.692c0-0.585 0.479-1.064 1.063-1.064h11.693" fill="none" stroke="#2b4c71" stroke-linecap="round" stroke-miterlimit="10" stroke-width="2.835"/>
    </g>
    <g transform="translate(64.045 51.023)">
     <path d="m0 0v11.693c0 0.584-0.478 1.063-1.063 1.063h-11.693" fill="none" stroke="#2b4c71" stroke-linecap="round" stroke-miterlimit="10" stroke-width="2.835"/>
    </g>
    <g transform="translate(43.848 100.98)">
     <path d="m0 0 19.134-19.134" fill="none" stroke="#e5850f" stroke-linecap="round" stroke-miterlimit="10" stroke-width="2.835"/>
    </g>
    <g transform="translate(42.785 89.292)">
     <path d="m0 0v11.693c0 0.584 0.479 1.063 1.063 1.063h11.693" fill="none" stroke="#e5850f" stroke-linecap="round" stroke-miterlimit="10" stroke-width="2.835"/>
    </g>
    <g transform="translate(64.045 93.544)">
     <path d="m0 0v-11.693c0-0.585-0.478-1.063-1.063-1.063h-11.693" fill="none" stroke="#e5850f" stroke-linecap="round" stroke-miterlimit="10" stroke-width="2.835"/>
    </g>
    <g transform="translate(122.95 73.412)">
     <path d="m0 0c0 0.555-0.048 1.115-0.144 1.68s-0.283 1.072-0.56 1.52-0.672 0.811-1.184 1.088c-0.511 0.277-1.195 0.416-2.048 0.416-0.704 0-1.295-0.112-1.776-0.336-0.479-0.224-0.869-0.539-1.168-0.944s-0.523-0.896-0.672-1.472-0.245-1.227-0.288-1.952zm2.592-0.192c0.021-0.512-0.059-0.944-0.239-1.296-0.182-0.352-0.572-0.528-1.168-0.528h-9.025c0.022-0.954 0.107-1.755 0.256-2.401 0.149-0.647 0.395-1.166 0.736-1.558s0.773-0.668 1.296-0.826c0.523-0.159 1.157-0.24 1.905-0.24 0.319 0 0.681 0.017 1.087 0.049 0.405 0.032 0.811 0.064 1.216 0.096 0.406 0.032 0.794 0.068 1.168 0.112 0.373 0.042 0.698 0.085 0.976 0.128 0.213 0.021 0.379 0.01 0.496-0.032 0.117-0.043 0.197-0.171 0.24-0.385l0.128-0.714c0.065-0.302-0.054-0.519-0.352-0.649-0.299-0.13-0.662-0.249-1.087-0.357-0.428-0.108-0.875-0.201-1.345-0.276-0.469-0.075-0.939-0.135-1.408-0.179-0.469-0.043-0.896-0.064-1.28-0.064-1.472 0-2.64 0.229-3.504 0.687-0.864 0.459-1.52 1.062-1.968 1.809-0.448 0.746-0.741 1.605-0.88 2.576-0.139 0.97-0.208 1.968-0.208 2.992 0 0.768 0.064 1.626 0.192 2.576 0.128 0.949 0.416 1.835 0.864 2.656s1.099 1.509 1.953 2.064c0.852 0.555 2.015 0.832 3.487 0.832 1.365 0 2.464-0.203 3.296-0.608s1.477-0.939 1.936-1.6c0.458-0.661 0.768-1.419 0.928-2.272 0.16-0.854 0.261-1.717 0.304-2.592" fill="#e5850f"/>
    </g>
    <g transform="translate(141.33 77.972)">
     <path d="m0 0h-3.816v-13.128c0-0.128-0.028-0.236-0.083-0.324-0.056-0.088-0.171-0.132-0.345-0.132h-1.784c-0.302 0-0.452 0.152-0.452 0.456v13.128h-3.792c-0.192 0-0.321 0.036-0.384 0.107-0.065 0.071-0.096 0.178-0.096 0.321v1.472c0 0.143 0.031 0.254 0.096 0.333 0.063 0.08 0.183 0.119 0.36 0.119h10.319c0.304 0 0.456-0.151 0.456-0.452v-1.472c0-0.285-0.16-0.428-0.479-0.428" fill="#2b4c71"/>
    </g>
    <g transform="translate(154.42 75.656)">
     <path d="m0 0c0 0.45-0.072 0.824-0.217 1.122-0.143 0.297-0.336 0.534-0.575 0.711-0.24 0.177-0.52 0.301-0.841 0.374-0.32 0.072-0.656 0.108-1.008 0.108h-2.544v-4.872h2.497c0.288 0 0.591 0.032 0.912 0.097 0.319 0.064 0.612 0.185 0.876 0.362 0.263 0.177 0.479 0.434 0.647 0.771 0.169 0.338 0.253 0.781 0.253 1.327m3.096-10.765c0.063-0.144 0.067-0.263 0.011-0.36-0.055-0.096-0.148-0.144-0.276-0.144h-2.063c-0.177 0-0.317 0.024-0.42 0.072-0.105 0.049-0.197 0.16-0.277 0.337l-2.807 6.023h-2.449v-5.952c0-0.32-0.152-0.48-0.455-0.48h-1.776c-0.32 0-0.48 0.152-0.48 0.456v15.024c0 0.304 0.16 0.456 0.48 0.456h5.327c0.624 0 1.229-0.088 1.813-0.264s1.103-0.452 1.559-0.827c0.456-0.377 0.824-0.861 1.105-1.452 0.279-0.593 0.42-1.305 0.42-2.137 0-0.431-0.052-0.863-0.157-1.296-0.104-0.432-0.267-0.844-0.492-1.235-0.223-0.393-0.515-0.753-0.876-1.081-0.359-0.328-0.804-0.587-1.332-0.78z" fill="#2b4c71"/>
    </g>
    <g transform="translate(169.48 74.012)">
     <path d="m0 0-0.984 3.456h-0.096l-0.96-3.408-1.009-3.456h4.057zm-4.801-9.12c-0.063-0.193-0.143-0.324-0.239-0.397-0.097-0.071-0.232-0.107-0.408-0.107h-1.872c-0.288 0-0.376 0.159-0.265 0.479l4.849 14.929c0.063 0.176 0.135 0.304 0.215 0.384 0.081 0.08 0.232 0.12 0.457 0.12h2.087c0.224 0 0.376-0.044 0.456-0.132 0.081-0.088 0.144-0.212 0.193-0.372l4.943-14.976c0.08-0.288 0-0.432-0.239-0.432h-2.112c-0.193 0-0.325 0.039-0.397 0.12-0.071 0.079-0.139 0.207-0.204 0.384l-1.008 3.456h-5.376z" fill="#2b4c71"/>
    </g>
    <g transform="translate(182.62 75.356)">
     <path d="m0 0h-0.071v-10.512c0-0.304-0.153-0.456-0.456-0.456h-1.729c-0.32 0-0.479 0.152-0.479 0.456v15.024c0 0.288 0.151 0.432 0.456 0.432h1.368c0.367 0 0.611-0.08 0.731-0.24s0.26-0.352 0.42-0.576l3.025-4.704 3.456-5.4h0.071v10.44c0 0.16 0.032 0.28 0.097 0.36s0.186 0.12 0.364 0.12h1.743c0.307 0 0.46-0.16 0.46-0.48v-15c0-0.288-0.153-0.432-0.46-0.432h-1.381c-0.225 0-0.391 0.036-0.496 0.108s-0.206 0.188-0.303 0.348l-5.208 7.944z" fill="#2b4c71"/>
    </g>
    <g transform="translate(202.56 64.172)">
     <path d="m0 0c-0.305 0-0.656 0.012-1.056 0.035-0.4 0.025-0.812 0.065-1.236 0.12-0.424 0.057-0.844 0.128-1.26 0.216-0.417 0.088-0.776 0.196-1.08 0.324-0.272 0.113-0.429 0.225-0.468 0.336-0.041 0.113-0.045 0.248-0.012 0.408l0.216 0.985c0.048 0.207 0.116 0.327 0.204 0.359s0.236 0.032 0.444 0c0.304-0.032 0.648-0.068 1.032-0.107 0.384-0.04 0.768-0.076 1.152-0.109 0.384-0.032 0.756-0.059 1.116-0.084 0.36-0.023 0.676-0.036 0.948-0.036 2.048 0 3.072 0.704 3.072 2.113 0 0.431-0.049 0.788-0.144 1.068-0.096 0.279-0.256 0.516-0.48 0.708-0.224 0.191-0.516 0.344-0.876 0.456s-0.812 0.216-1.356 0.312c-0.704 0.144-1.38 0.304-2.028 0.48s-1.22 0.424-1.716 0.744c-0.496 0.319-0.888 0.744-1.176 1.272s-0.432 1.2-0.432 2.016c0 1.52 0.484 2.679 1.451 3.48 0.969 0.8 2.301 1.2 3.997 1.2 0.224 0 0.516-8e-3 0.875-0.024 0.361-0.016 0.745-0.044 1.153-0.084 0.408-0.041 0.819-0.105 1.236-0.192 0.416-0.088 0.8-0.204 1.152-0.348 0.272-0.112 0.428-0.225 0.468-0.336 0.039-0.112 0.044-0.249 0.012-0.408l-0.24-0.984c-0.048-0.192-0.12-0.309-0.216-0.348-0.096-0.04-0.256-0.052-0.481-0.036-0.543 0.08-1.139 0.152-1.787 0.216-0.648 0.063-1.332 0.096-2.052 0.096-1.024 0-1.74-0.188-2.148-0.564s-0.612-0.9-0.612-1.572c0-0.384 0.052-0.692 0.156-0.924s0.268-0.42 0.492-0.564 0.516-0.261 0.876-0.348c0.36-0.088 0.804-0.18 1.332-0.276 0.688-0.144 1.352-0.304 1.992-0.48 0.639-0.177 1.204-0.432 1.692-0.768s0.88-0.784 1.176-1.344c0.296-0.561 0.444-1.296 0.444-2.208s-0.16-1.672-0.48-2.28c-0.321-0.609-0.748-1.101-1.284-1.476-0.537-0.377-1.156-0.645-1.86-0.805-0.704-0.159-1.44-0.239-2.208-0.239" fill="#e5850f"/>
    </g>
    <g transform="translate(220 74.012)">
     <path d="m0 0-0.984 3.456h-0.096l-0.96-3.408-1.009-3.456h4.057zm-4.801-9.12c-0.063-0.193-0.143-0.324-0.239-0.397-0.097-0.071-0.232-0.107-0.408-0.107h-1.872c-0.288 0-0.376 0.159-0.265 0.479l4.849 14.929c0.063 0.176 0.135 0.304 0.215 0.384 0.081 0.08 0.232 0.12 0.457 0.12h2.087c0.224 0 0.376-0.044 0.456-0.132 0.081-0.088 0.144-0.212 0.193-0.372l4.943-14.976c0.08-0.288 0-0.432-0.239-0.432h-2.112c-0.193 0-0.325 0.039-0.397 0.12-0.071 0.079-0.139 0.207-0.204 0.384l-1.008 3.456h-5.376z" fill="#e5850f"/>
    </g>
    <g transform="translate(230.45 79.868)">
     <path d="m0 0c0 0.304 0.16 0.456 0.48 0.456h8.665c0.303 0 0.455-0.151 0.455-0.452v-1.472c0-0.285-0.161-0.428-0.48-0.428h-6.408v-4.176h5.592c0.303 0 0.456-0.142 0.456-0.428v-1.473c0-0.3-0.16-0.451-0.48-0.451h-5.544v-6.6c0-0.305-0.152-0.456-0.456-0.456h-1.8c-0.32 0-0.48 0.151-0.48 0.456z" fill="#e5850f"/>
    </g>
    <g transform="translate(244.96 79.844)">
     <path d="m0 0c0 0.32 0.159 0.48 0.479 0.48h8.833c0.303 0 0.456-0.151 0.456-0.452v-1.472c0-0.285-0.161-0.428-0.48-0.428h-6.552v-4.152h5.808c0.32 0 0.479-0.144 0.479-0.432v-1.488c0-0.288-0.159-0.432-0.479-0.432h-5.808v-4.728h6.72c0.288 0 0.432-0.153 0.432-0.457v-1.463c0-0.289-0.153-0.432-0.456-0.432h-8.953c-0.32 0-0.479 0.143-0.479 0.432z" fill="#e5850f"/>
    </g>
   </g>
  </g>
 </g>
</svg>
