<?xml version="1.0" encoding="UTF-8" standalone="no"?>
<svg xmlns:dc="http://purl.org/dc/elements/1.1/" xmlns:cc="http://creativecommons.org/ns#" xmlns:rdf="http://www.w3.org/1999/02/22-rdf-syntax-ns#" xmlns:svg="http://www.w3.org/2000/svg" xmlns="http://www.w3.org/2000/svg" id="svg8" version="1.1" viewBox="0 0 97.516602 30.000221" height="30.000221mm" width="97.516602mm">
  <defs id="defs2">
    <clipPath clipPathUnits="userSpaceOnUse" id="clipPath973">
      <path d="M 276.437,85.04 H 0 V 0 h 276.437 z" id="path971"/>
    </clipPath>
  </defs>
  <metadata id="metadata5">
    <rdf:RDF>
      <cc:Work rdf:about="">
        <dc:format>image/svg+xml</dc:format>
        <dc:type rdf:resource="http://purl.org/dc/dcmitype/StillImage"/>
        <dc:title/>
      </cc:Work>
    </rdf:RDF>
  </metadata>
  <g transform="translate(-63.122657,-74.112978)" id="layer1">
    <g id="g1207">
      <path d="m 116.68737,100.48594 h 0.34996 V 77.754703 h -0.34996 z" style="fill:#73bf44;fill-opacity:1;fill-rule:nonzero;stroke:none;stroke-width:0.35277778" id="path825"/>
      <g id="g827" transform="matrix(0.35277777,0,0,-0.35277777,120.62649,84.671264)">
        <path d="M 1.428,0 H 0 V 14.281 H 1.428 Z M 0,0 Z m 0.654,17.136 c -0.654,0 -1.1,0.566 -1.1,1.22 0,0.655 0.505,1.25 1.16,1.25 0.655,0 1.131,-0.565 1.131,-1.25 0,-0.654 -0.447,-1.22 -1.161,-1.22 h -0.03" style="fill:#003d4c;fill-opacity:1;fill-rule:nonzero;stroke:none" id="path829"/>
      </g>
      <g id="g831" transform="matrix(0.35277777,0,0,-0.35277777,122.55477,80.840451)">
        <path d="m 0,0 c 0,1.309 -0.031,2.291 -0.12,3.422 h 1.339 l 0.09,-2.559 h 0.059 c 0.773,1.607 2.589,2.886 4.909,2.886 1.368,0 4.998,-0.685 4.998,-6.04 v -8.568 H 9.847 V -2.41 C 9.847,0.209 8.836,2.559 5.89,2.559 3.897,2.559 2.171,1.131 1.606,-0.744 1.517,-1.071 1.428,-1.547 1.428,-1.993 v -8.866 H 0 V 0" style="fill:#003d4c;fill-opacity:1;fill-rule:nonzero;stroke:none" id="path833"/>
      </g>
      <g id="g835" transform="matrix(0.35277777,0,0,-0.35277777,127.91488,80.840451)">
        <path d="M 0,0 C 0,1.309 -0.03,2.291 -0.119,3.422 H 1.22 L 1.309,0.863 h 0.059 c 0.774,1.607 2.589,2.886 4.909,2.886 1.368,0 4.998,-0.685 4.998,-6.04 v -8.568 H 9.848 V -2.41 C 9.848,0.209 8.836,2.559 5.891,2.559 3.896,2.559 2.172,1.131 1.606,-0.744 1.517,-1.071 1.428,-1.547 1.428,-1.993 v -8.866 H 0 V 0" style="fill:#003d4c;fill-opacity:1;fill-rule:nonzero;stroke:none" id="path837"/>
      </g>
      <g id="g839" transform="matrix(0.35277777,0,0,-0.35277777,135.19551,84.366817)">
        <path d="m 0,0 c 2.975,0 5.325,2.678 5.325,6.337 0,2.618 -1.457,6.218 -5.236,6.218 -3.66,0 -5.295,-3.243 -5.295,-6.307 0,-3.57 2.26,-6.248 5.175,-6.248 z m -0.089,-1.19 c -3.69,0 -6.546,2.886 -6.546,7.348 0,4.88 3.214,7.587 6.754,7.587 3.957,0 6.634,-2.975 6.634,-7.348 0,-5.296 -3.66,-7.587 -6.813,-7.587 h -0.029" style="fill:#003d4c;fill-opacity:1;fill-rule:nonzero;stroke:none" id="path841"/>
      </g>
      <g id="g843" transform="matrix(0.35277777,0,0,-0.35277777,138.38321,79.633245)">
        <path d="m 0,0 3.332,-8.866 c 0.564,-1.399 1.012,-2.588 1.398,-3.808 h 0.059 c 0.387,1.19 0.923,2.44 1.458,3.808 L 9.638,0 h 1.489 L 5.325,-14.281 H 4.075 L -1.518,0 H 0" style="fill:#003d4c;fill-opacity:1;fill-rule:nonzero;stroke:none" id="path845"/>
      </g>
      <g id="g847" transform="matrix(0.35277777,0,0,-0.35277777,145.65325,81.973925)">
        <path d="m 0,0 c -3.124,0.089 -7.229,-0.387 -7.229,-3.808 0,-2.053 1.368,-2.975 2.855,-2.975 2.381,0 3.749,1.458 4.225,2.856 C -0.03,-3.63 0,-3.303 0,-3.065 Z m 1.428,-4.254 c 0,-1.131 0.03,-2.291 0.208,-3.392 H 0.327 L 0.118,-5.593 H 0.06 c -0.715,-1.101 -2.291,-2.38 -4.582,-2.38 -2.886,0 -4.196,2.023 -4.196,3.927 0,3.302 2.887,5.295 8.718,5.236 v 0.387 c 0,1.398 -0.268,4.224 -3.659,4.194 -1.25,0 -2.559,-0.327 -3.601,-1.07 l -0.446,1.041 c 1.31,0.862 2.916,1.22 4.195,1.22 4.135,0 4.939,-3.094 4.939,-5.623 v -5.593" style="fill:#003d4c;fill-opacity:1;fill-rule:nonzero;stroke:none" id="path849"/>
      </g>
      <g id="g851" transform="matrix(0.35277777,0,0,-0.35277777,148.21089,78.520937)">
        <path d="M 0,0 V -3.153 H 4.076 V -4.314 H 0 v -9.282 c 0,-1.815 0.566,-2.946 2.083,-2.946 0.743,0 1.279,0.09 1.636,0.209 l 0.179,-1.071 c -0.477,-0.179 -1.131,-0.328 -1.994,-0.328 -1.042,0 -1.904,0.328 -2.439,0.982 -0.655,0.744 -0.893,1.964 -0.893,3.422 v 9.014 h -2.41 v 1.161 h 2.41 v 2.617 L 0,0" style="fill:#003d4c;fill-opacity:1;fill-rule:nonzero;stroke:none" id="path853"/>
      </g>
      <g id="g855" transform="matrix(0.35277777,0,0,-0.35277777,150.49619,84.671264)">
        <path d="M 1.427,0 H 0 V 14.281 H 1.427 Z M 0,0 Z m 0.654,17.136 c -0.654,0 -1.102,0.566 -1.102,1.22 0,0.655 0.506,1.25 1.161,1.25 0.655,0 1.13,-0.565 1.13,-1.25 0,-0.654 -0.446,-1.22 -1.16,-1.22 H 0.654" style="fill:#003d4c;fill-opacity:1;fill-rule:nonzero;stroke:none" id="path857"/>
      </g>
      <g id="g859" transform="matrix(0.35277777,0,0,-0.35277777,152.26642,79.633245)">
        <path d="m 0,0 3.332,-8.866 c 0.566,-1.399 1.012,-2.588 1.399,-3.808 H 4.79 c 0.387,1.19 0.922,2.44 1.458,3.808 L 9.64,0 h 1.487 L 5.325,-14.281 H 4.076 L -1.516,0 H 0" style="fill:#003d4c;fill-opacity:1;fill-rule:nonzero;stroke:none" id="path861"/>
      </g>
      <g id="g863" transform="matrix(0.35277777,0,0,-0.35277777,160.11397,81.701228)">
        <path d="M 0,0 C 0.03,1.993 -0.802,4.998 -4.254,4.998 -7.408,4.998 -8.746,2.202 -9.014,0 Z m -9.103,-1.13 c 0,-4.553 2.499,-6.367 5.444,-6.367 2.083,0 3.154,0.417 3.957,0.803 l 0.357,-1.101 c -0.535,-0.297 -1.993,-0.922 -4.493,-0.922 -4.105,0 -6.664,2.975 -6.664,7.17 0,4.76 2.738,7.735 6.426,7.735 4.672,0 5.565,-4.403 5.565,-6.456 0,-0.386 0,-0.595 -0.061,-0.862 H -9.103" style="fill:#003d4c;fill-opacity:1;fill-rule:nonzero;stroke:none" id="path865"/>
      </g>
      <g id="g867" transform="matrix(0.35277777,0,0,-0.35277777,120.62649,88.689756)">
        <path d="M 0,0 C 0,1.309 -0.03,2.291 -0.119,3.422 H 1.22 l 0.089,-2.5 h 0.06 c 0.922,1.637 2.291,2.827 4.641,2.827 1.963,0 3.48,-1.31 4.105,-3.094 h 0.06 c 0.386,0.833 0.922,1.488 1.458,1.933 0.921,0.744 1.874,1.161 3.391,1.161 1.399,0 4.671,-0.773 4.671,-6.189 v -8.42 h -1.428 v 8.3 c 0,3.215 -1.25,5.119 -3.718,5.119 -1.786,0 -3.184,-1.339 -3.749,-2.827 -0.12,-0.416 -0.239,-0.892 -0.239,-1.427 V -10.86 H 9.134 v 8.956 c 0,2.559 -1.22,4.463 -3.54,4.463 C 3.689,2.559 2.172,1.012 1.637,-0.654 1.517,-1.071 1.428,-1.547 1.428,-2.053 V -10.86 H 0 V 0" style="fill:#003d4c;fill-opacity:1;fill-rule:nonzero;stroke:none" id="path869"/>
      </g>
      <g id="g871" transform="matrix(0.35277777,0,0,-0.35277777,132.28192,89.550534)">
        <path d="M 0,0 C 0.03,1.994 -0.803,4.999 -4.254,4.999 -7.408,4.999 -8.746,2.202 -9.015,0 Z m -9.104,-1.131 c 0,-4.552 2.499,-6.367 5.445,-6.367 2.083,0 3.153,0.416 3.957,0.803 l 0.356,-1.101 c -0.535,-0.297 -1.993,-0.922 -4.492,-0.922 -4.106,0 -6.664,2.974 -6.664,7.17 0,4.761 2.737,7.737 6.426,7.737 4.672,0 5.564,-4.403 5.564,-6.457 0,-0.387 0,-0.596 -0.06,-0.863 H -9.104" style="fill:#003d4c;fill-opacity:1;fill-rule:nonzero;stroke:none" id="path873"/>
      </g>
      <g id="g875" transform="matrix(0.35277777,0,0,-0.35277777,137.37779,89.477156)">
        <path d="m 0,0 c 0,0.387 -0.029,0.893 -0.148,1.31 -0.477,1.903 -2.172,3.48 -4.492,3.48 -3.124,0 -5.088,-2.707 -5.088,-6.398 0,-3.213 1.606,-6.159 4.998,-6.159 2.052,0 3.986,1.37 4.582,3.719 C -0.029,-3.69 0,-3.304 0,-2.856 Z M 1.428,12.525 V -5.327 c 0,-1.041 0.03,-2.291 0.119,-3.302 H 0.268 L 0.149,-5.921 H 0.09 c -0.744,-1.578 -2.44,-3.035 -5.088,-3.035 -3.54,0 -6.158,2.945 -6.158,7.199 -0.03,4.762 2.915,7.737 6.426,7.737 2.469,0 4.046,-1.279 4.671,-2.529 H 0 v 9.074 h 1.428" style="fill:#003d4c;fill-opacity:1;fill-rule:nonzero;stroke:none" id="path877"/>
      </g>
      <g id="g879" transform="matrix(0.35277777,0,0,-0.35277777,139.34629,92.521275)">
        <path d="M 1.428,0 H 0 V 14.282 H 1.428 Z M 0,0 Z m 0.655,17.138 c -0.655,0 -1.102,0.565 -1.102,1.219 0,0.655 0.506,1.25 1.16,1.25 0.655,0 1.131,-0.565 1.131,-1.25 0,-0.654 -0.446,-1.219 -1.16,-1.219 H 0.655" style="fill:#003d4c;fill-opacity:1;fill-rule:nonzero;stroke:none" id="path881"/>
      </g>
      <g id="g883" transform="matrix(0.35277777,0,0,-0.35277777,144.78859,92.301142)">
        <path d="m 0,0 c -0.624,-0.297 -2.112,-0.922 -4.194,-0.922 -4.106,0 -6.843,3.006 -6.843,7.289 0,4.554 3.094,7.618 7.349,7.618 1.754,0 3.212,-0.506 3.748,-0.892 l -0.506,-1.16 c -0.684,0.416 -1.785,0.833 -3.362,0.833 -3.838,0 -5.801,-2.916 -5.801,-6.28 0,-3.748 2.35,-6.187 5.653,-6.187 1.695,0 2.796,0.474 3.569,0.832 L 0,0" style="fill:#003d4c;fill-opacity:1;fill-rule:nonzero;stroke:none" id="path885"/>
      </g>
      <g id="g887" transform="matrix(0.35277777,0,0,-0.35277777,145.77037,92.521275)">
        <path d="M 1.429,0 H 0 V 14.282 H 1.429 Z M 0,0 Z m 0.655,17.138 c -0.655,0 -1.101,0.565 -1.101,1.219 0,0.655 0.506,1.25 1.16,1.25 0.655,0 1.131,-0.565 1.131,-1.25 0,-0.654 -0.446,-1.219 -1.16,-1.219 h -0.03" style="fill:#003d4c;fill-opacity:1;fill-rule:nonzero;stroke:none" id="path889"/>
      </g>
      <g id="g891" transform="matrix(0.35277777,0,0,-0.35277777,147.73887,88.689756)">
        <path d="M 0,0 C 0,1.309 -0.029,2.291 -0.118,3.422 H 1.22 L 1.31,0.863 h 0.059 c 0.774,1.607 2.588,2.886 4.909,2.886 1.369,0 4.999,-0.685 4.999,-6.041 V -10.86 H 9.848 v 8.45 C 9.848,0.208 8.836,2.559 5.891,2.559 3.898,2.559 2.172,1.131 1.607,-0.744 1.518,-1.071 1.429,-1.547 1.429,-1.993 V -10.86 H 0 V 0" style="fill:#003d4c;fill-opacity:1;fill-rule:nonzero;stroke:none" id="path893"/>
      </g>
      <g id="g895" transform="matrix(0.35277777,0,0,-0.35277777,156.42426,89.550534)">
        <path d="M 0,0 C 0.031,1.994 -0.802,4.999 -4.254,4.999 -7.407,4.999 -8.746,2.202 -9.013,0 Z m -9.103,-1.131 c 0,-4.552 2.499,-6.367 5.444,-6.367 2.083,0 3.154,0.416 3.957,0.803 l 0.358,-1.101 c -0.536,-0.297 -1.993,-0.922 -4.493,-0.922 -4.106,0 -6.665,2.974 -6.665,7.17 0,4.761 2.738,7.737 6.427,7.737 4.671,0 5.564,-4.403 5.564,-6.457 0,-0.387 0,-0.596 -0.06,-0.863 H -9.103" style="fill:#003d4c;fill-opacity:1;fill-rule:nonzero;stroke:none" id="path897"/>
      </g>
      <g id="g899" transform="matrix(0.35277777,0,0,-0.35277777,157.79445,91.86017)">
        <path d="m 0,0 c 0.774,-0.477 1.934,-0.981 3.213,-0.981 2.262,0 3.332,1.219 3.332,2.708 0,1.576 -0.952,2.409 -3.005,3.242 -2.349,0.892 -3.629,2.173 -3.629,3.898 0,2.083 1.636,3.868 4.403,3.868 1.309,0 2.44,-0.386 3.154,-0.892 l -0.535,-1.16 c -0.506,0.356 -1.429,0.862 -2.857,0.862 -1.815,0 -2.766,-1.16 -2.766,-2.469 0,-1.488 1.011,-2.113 2.945,-2.917 2.32,-0.923 3.689,-2.083 3.689,-4.255 0,-2.439 -1.904,-4.076 -4.82,-4.076 -1.369,0 -2.678,0.387 -3.63,0.983 L 0,0" style="fill:#003d4c;fill-opacity:1;fill-rule:nonzero;stroke:none" id="path901"/>
      </g>
      <g id="g903" transform="matrix(0.35277777,0,0,-0.35277777,120.62649,100.37058)">
        <path d="M 1.428,0 H 0 V 14.28 H 1.428 Z M 0,0 Z m 0.654,17.136 c -0.654,0 -1.1,0.566 -1.1,1.221 0,0.654 0.505,1.25 1.16,1.25 0.655,0 1.131,-0.567 1.131,-1.25 0,-0.655 -0.447,-1.221 -1.161,-1.221 h -0.03" style="fill:#003d4c;fill-opacity:1;fill-rule:nonzero;stroke:none" id="path905"/>
      </g>
      <g id="g907" transform="matrix(0.35277777,0,0,-0.35277777,123.47341,96.539767)">
        <path d="m 0,0 c 0,1.31 -0.029,2.291 -0.119,3.422 h 1.34 L 1.31,0.863 h 0.059 c 0.774,1.608 2.588,2.887 4.908,2.887 1.37,0 4.998,-0.686 4.998,-6.041 v -8.567 H 9.848 v 8.449 C 9.848,0.209 8.836,2.559 5.891,2.559 3.898,2.559 2.172,1.131 1.608,-0.743 1.518,-1.07 1.429,-1.547 1.429,-1.992 v -8.866 H 0 V 0" style="fill:#003d4c;fill-opacity:1;fill-rule:nonzero;stroke:none" id="path909"/>
      </g>
      <g id="g911" transform="matrix(0.35277777,0,0,-0.35277777,129.7525,100.37058)">
        <path d="M 1.428,0 H 0 V 14.28 H 1.428 Z M 0,0 Z m 0.654,17.136 c -0.654,0 -1.1,0.566 -1.1,1.221 0,0.654 0.506,1.25 1.16,1.25 0.655,0 1.131,-0.567 1.131,-1.25 0,-0.655 -0.447,-1.221 -1.16,-1.221 H 0.654" style="fill:#003d4c;fill-opacity:1;fill-rule:nonzero;stroke:none" id="path913"/>
      </g>
      <g id="g915" transform="matrix(0.35277777,0,0,-0.35277777,133.29227,94.2199)">
        <path d="m 0,0 v -3.154 h 4.076 v -1.16 H 0 v -9.283 c 0,-1.815 0.566,-2.945 2.083,-2.945 0.743,0 1.279,0.089 1.636,0.208 l 0.179,-1.07 c -0.477,-0.18 -1.131,-0.328 -1.994,-0.328 -1.042,0 -1.904,0.328 -2.439,0.982 -0.655,0.744 -0.893,1.963 -0.893,3.422 v 9.014 h -2.41 v 1.16 h 2.41 v 2.618 L 0,0" style="fill:#003d4c;fill-opacity:1;fill-rule:nonzero;stroke:none" id="path917"/>
      </g>
      <g id="g919" transform="matrix(0.35277777,0,0,-0.35277777,136.4962,100.37058)">
        <path d="M 1.428,0 H 0 V 14.28 H 1.428 Z M 0,0 Z m 0.654,17.136 c -0.654,0 -1.1,0.566 -1.1,1.221 0,0.654 0.506,1.25 1.16,1.25 0.654,0 1.131,-0.567 1.131,-1.25 0,-0.655 -0.447,-1.221 -1.16,-1.221 H 0.654" style="fill:#003d4c;fill-opacity:1;fill-rule:nonzero;stroke:none" id="path921"/>
      </g>
      <g id="g923" transform="matrix(0.35277777,0,0,-0.35277777,141.97766,97.673242)">
        <path d="m 0,0 c -3.124,0.09 -7.23,-0.387 -7.23,-3.808 0,-2.052 1.369,-2.975 2.856,-2.975 2.38,0 3.749,1.459 4.225,2.856 C -0.03,-3.629 0,-3.303 0,-3.064 Z m 1.428,-4.254 c 0,-1.131 0.029,-2.291 0.208,-3.392 H 0.327 L 0.118,-5.593 H 0.059 c -0.714,-1.1 -2.29,-2.38 -4.581,-2.38 -2.886,0 -4.196,2.024 -4.196,3.928 0,3.301 2.886,5.295 8.718,5.236 v 0.386 c 0,1.399 -0.268,4.225 -3.66,4.194 -1.249,0 -2.559,-0.326 -3.6,-1.07 l -0.446,1.041 c 1.31,0.863 2.916,1.221 4.195,1.221 4.135,0 4.939,-3.095 4.939,-5.623 v -5.594" style="fill:#003d4c;fill-opacity:1;fill-rule:nonzero;stroke:none" id="path925"/>
      </g>
      <g id="g927" transform="matrix(0.35277777,0,0,-0.35277777,145.45429,94.2199)">
        <path d="m 0,0 v -3.154 h 4.076 v -1.16 H 0 v -9.283 c 0,-1.815 0.565,-2.945 2.083,-2.945 0.744,0 1.279,0.089 1.635,0.208 l 0.179,-1.07 c -0.475,-0.18 -1.131,-0.328 -1.993,-0.328 -1.041,0 -1.904,0.328 -2.439,0.982 -0.655,0.744 -0.893,1.963 -0.893,3.422 v 9.014 h -2.41 v 1.16 h 2.41 v 2.618 L 0,0" style="fill:#003d4c;fill-opacity:1;fill-rule:nonzero;stroke:none" id="path929"/>
      </g>
      <g id="g931" transform="matrix(0.35277777,0,0,-0.35277777,148.65821,100.37058)">
        <path d="M 1.427,0 H 0 V 14.28 H 1.427 Z M 0,0 Z m 0.654,17.136 c -0.654,0 -1.101,0.566 -1.101,1.221 0,0.654 0.506,1.25 1.161,1.25 0.654,0 1.13,-0.567 1.13,-1.25 0,-0.655 -0.446,-1.221 -1.16,-1.221 h -0.03" style="fill:#003d4c;fill-opacity:1;fill-rule:nonzero;stroke:none" id="path933"/>
      </g>
      <g id="g935" transform="matrix(0.35277777,0,0,-0.35277777,151.34779,95.332561)">
        <path d="m 0,0 3.332,-8.865 c 0.565,-1.399 1.012,-2.588 1.398,-3.809 h 0.06 c 0.387,1.19 0.922,2.44 1.458,3.809 L 9.638,0 h 1.489 L 5.325,-14.28 H 4.076 L -1.518,0 H 0" style="fill:#003d4c;fill-opacity:1;fill-rule:nonzero;stroke:none" id="path937"/>
      </g>
      <g id="g939" transform="matrix(0.35277777,0,0,-0.35277777,160.11397,97.400545)">
        <path d="M 0,0 C 0.03,1.994 -0.802,4.998 -4.254,4.998 -7.408,4.998 -8.746,2.202 -9.014,0 Z m -9.103,-1.13 c 0,-4.552 2.499,-6.366 5.444,-6.366 2.083,0 3.154,0.416 3.957,0.803 l 0.357,-1.102 c -0.535,-0.297 -1.993,-0.922 -4.493,-0.922 -4.105,0 -6.664,2.975 -6.664,7.17 0,4.76 2.738,7.736 6.426,7.736 4.672,0 5.565,-4.404 5.565,-6.457 0,-0.386 0,-0.594 -0.061,-0.862 H -9.103" style="fill:#003d4c;fill-opacity:1;fill-rule:nonzero;stroke:none" id="path941"/>
      </g>
      <g id="g943" transform="matrix(0.35277777,0,0,-0.35277777,98.87245,101.07289)">
        <path d="m 0,0 c 0,3.719 3.012,6.73 6.73,6.73 3.72,0 6.734,-3.011 6.734,-6.73 0,-3.7168 -3.014,-6.7344 -6.734,-6.7344 C 3.012,-6.7344 0,-3.7168 0,0" style="fill:#003d4c;fill-opacity:1;fill-rule:nonzero;stroke:none" id="path945"/>
      </g>
      <g id="g947" transform="matrix(0.35277777,0,0,-0.35277777,72.596504,77.140164)">
        <path d="m 0,0 c 0,3.718 3.013,6.731 6.73,6.731 3.72,0 6.734,-3.013 6.734,-6.731 0,-3.72 -3.014,-6.733 -6.734,-6.733 C 3.013,-6.733 0,-3.72 0,0" style="fill:#003d4c;fill-opacity:1;fill-rule:nonzero;stroke:none" id="path949"/>
      </g>
      <g id="g951" transform="matrix(0.35277777,0,0,-0.35277777,82.387498,84.263453)">
        <path d="m 0,0 c 0,2.935 -2.379,5.315 -5.315,5.315 -1.57,0 -4.89,-0.003 -4.89,-0.003 0,0 0,-3.947 0,-5.312 v -28.344 c 0,-2.935 2.379,-5.314 5.315,-5.314 2.935,0 5.315,2.379 5.315,5.314 L 0.424,-8.347 c 0,2.935 2.38,5.315 5.315,5.315 2.935,0 5.315,-2.38 5.315,-5.315 l 10e-4,-20.004 c 0,-2.934 2.38,-5.315 5.316,-5.315 2.935,0 5.314,2.381 5.314,5.315 l 0.005,20.004 c 0,2.935 2.38,5.315 5.315,5.315 2.936,0 5.315,-2.38 5.315,-5.315 v -19.997 c 0,-2.935 2.38,-5.314 5.315,-5.314 2.935,0 5.313,2.379 5.313,5.314 v 20.005 c 0,8.086 -5.48,14.511 -14.171,14.173 C 24.107,5.653 20.857,2.71 19.493,0.238 L 19.478,0.241 C 18.42,2.647 15.638,5.827 10.361,5.827 6.09,5.827 2.31,3.494 -0.005,-0.087 L 0,0" style="fill:#73bf44;fill-opacity:1;fill-rule:nonzero;stroke:none" id="path953"/>
      </g>
      <g id="g955" transform="matrix(0.35277777,0,0,-0.35277777,76.870054,84.264159)">
        <path d="m 0,0 c 0,2.935 -2.38,5.315 -5.315,5.315 -2.935,0 -5.315,0.003 -5.315,0.003 v -33.66 c 0,-2.936 2.38,-5.315 5.315,-5.315 2.935,0 5.315,2.379 5.315,5.315 V 0" style="fill:#73bf44;fill-opacity:1;fill-rule:nonzero;stroke:none" id="path957"/>
      </g>
      <g id="g959" transform="matrix(0.35277777,0,0,-0.35277777,99.372336,94.261175)">
        <path d="m 0,0 c 0,-2.936 2.38,-5.315 5.315,-5.315 2.935,0 5.315,-0.003 5.315,-0.003 v 33.659 c 0,2.936 -2.38,5.315 -5.315,5.315 C 2.38,33.656 0,31.277 0,28.341 V 0" style="fill:#73bf44;fill-opacity:1;fill-rule:nonzero;stroke:none" id="path961"/>
      </g>
      <g id="g963" transform="matrix(0.35277777,0,0,-0.35277777,104.29464,99.109047)">
        <path d="m 0,0 c 15.309,6.824 24.74,17.002 24.74,28.374 0,20.547 -28.063,37.176 -70.583,37.275 -9.539,0.022 -18.638,-1.06 -26.944,-2.854 0,0 -0.015,1.051 -0.38,2.317 -0.365,1.267 -0.931,2.229 -0.931,2.229 8.657,2.261 18.212,3.514 28.255,3.514 39.139,0 70.866,-19.036 70.866,-42.519 0,-12.596 -9.124,-23.91 -23.624,-31.695 0,0 -0.193,0.88 -0.543,1.728 C 0.468,-0.689 0,0 0,0" style="fill:#003d4c;fill-opacity:1;fill-rule:nonzero;stroke:none" id="path965"/>
      </g>
      <g id="g967" transform="matrix(0.35277777,0,0,-0.35277777,63.12054,104.1132)">
        <g id="g969" clip-path="url(#clipPath973)">
          <g id="g975" transform="translate(97.812,8.1348)">
            <path d="m 0,0 c -8.306,-1.7939 -17.403,-2.8535 -26.94,-2.8535 -42.527,0 -70.582,16.7275 -70.582,37.2765 0,11.367 9.424,21.542 24.724,28.366 0,0 -0.406,0.585 -0.829,1.574 -0.422,0.989 -0.548,1.72 -0.548,1.72 -14.504,-7.786 -23.631,-19.102 -23.631,-31.697 0,-23.485 31.727,-42.5217 70.866,-42.5217 10.052,0 19.616,1.2558 28.279,3.5205 0,0 -0.551,0.8935 -0.947,2.2353 C 0.012,-1.0908 0,0 0,0" style="fill:#003d4c;fill-opacity:1;fill-rule:nonzero;stroke:none" id="path977"/>
          </g>
        </g>
      </g>
    </g>
  </g>
</svg>